<?xml version="1.0" encoding="UTF-8"?>
<!DOCTYPE svg PUBLIC "-//W3C//DTD SVG 1.1//EN" "http://www.w3.org/Graphics/SVG/1.1/DTD/svg11.dtd">
<svg xmlns="http://www.w3.org/2000/svg" version="1.1" width="512px" height="512px" style="shape-rendering:geometricPrecision; text-rendering:geometricPrecision; image-rendering:optimizeQuality; fill-rule:evenodd; clip-rule:evenodd" xmlns:xlink="http://www.w3.org/1999/xlink">
<g><path style="opacity:0.992" fill="#b99b80" d="M 435.5,285.5 C 419.383,285.971 409.217,293.971 405,309.5C 403.711,320.076 404.711,330.409 408,340.5C 411.946,346.779 416.279,352.779 421,358.5C 426.704,369.17 426.871,379.837 421.5,390.5C 412.002,403.075 400.336,413.075 386.5,420.5C 375.667,422.599 366.667,427.765 359.5,436C 347.302,442.096 334.635,447.096 321.5,451C 314.765,452.65 307.932,453.484 301,453.5C 285.371,452.486 269.871,450.486 254.5,447.5C 236.032,451.497 217.365,453.33 198.5,453C 181.904,449.867 166.237,444.2 151.5,436C 144.097,428.135 135.097,422.968 124.5,420.5C 110.403,413.408 98.736,403.408 89.5,390.5C 84.1289,379.837 84.2956,369.17 90,358.5C 94.7206,352.779 99.054,346.779 103,340.5C 107.981,326.636 107.648,312.97 102,299.5C 95.6617,290.246 86.8284,285.579 75.5,285.5C 76.3363,281.494 76.8363,277.494 77,273.5C 52.8251,252.819 39.4918,226.485 37,194.5C 35.8945,140.985 59.3945,102.818 107.5,80C 108.833,78.3333 108.833,76.6667 107.5,75C 95.7225,69.5558 86.8892,61.0558 81,49.5C 74.1885,38.5452 69.0218,26.8786 65.5,14.5C 66.2458,13.2638 66.5792,11.9305 66.5,10.5C 82.0582,13.7778 97.7248,16.6111 113.5,19C 146.573,19.9011 178.906,25.2344 210.5,35C 225.896,39.5761 241.062,44.7428 256,50.5C 303.86,30.7444 353.693,19.9111 405.5,18C 418.495,15.3332 431.495,12.8332 444.5,10.5C 444.79,14.9362 444.29,19.2695 443,23.5C 436.39,40.5699 426.89,55.7365 414.5,69C 410.993,71.254 407.327,73.254 403.5,75C 402.167,76.6667 402.167,78.3333 403.5,80C 451.606,102.818 475.106,140.985 474,194.5C 471.504,226.493 458.171,252.827 434,273.5C 434.164,277.494 434.664,281.494 435.5,285.5 Z"/></g>
<g><path style="opacity:1" fill="#fefefe" d="M 298.5,274.5 C 304.291,249.36 296.624,229.527 275.5,215C 251.543,205.563 232.71,211.73 219,233.5C 212.953,245.566 211.12,258.232 213.5,271.5C 213.489,273.017 212.823,274.184 211.5,275C 167.766,299.586 126.1,296.586 86.5,266C 51.1192,232.051 41.6192,191.884 58,145.5C 74.3436,110.564 101.51,89.397 139.5,82C 195.447,78.1263 234.113,101.96 255.5,153.5C 279.013,98.0697 320.68,74.903 380.5,84C 424.468,96.7647 450.968,125.598 460,170.5C 464.376,225.289 441.542,263.455 391.5,285C 358.785,296.349 327.785,292.849 298.5,274.5 Z"/></g>
<g><path style="opacity:1" fill="#1bbcee" d="M 125.5,140.5 C 96.5875,162.17 91.0875,188.836 109,220.5C 129.378,244.717 153.878,249.883 182.5,236C 202.76,222.642 211.593,203.808 209,179.5C 202.455,150.46 184.288,134.794 154.5,132.5C 154.5,127.833 154.5,123.167 154.5,118.5C 192.924,120.754 216.091,140.754 224,178.5C 225.968,217.176 208.801,243.009 172.5,256C 142.405,262.635 117.571,254.135 98,230.5C 85.4465,212.275 81.4465,192.275 86,170.5C 91.3732,152.399 102.04,138.399 118,128.5C 121.261,132.022 123.761,136.022 125.5,140.5 Z"/></g>
<g><path style="opacity:1" fill="#1bbcee" d="M 328.5,140.5 C 303.171,157.884 295.671,181.218 306,210.5C 319.21,236.022 340.043,246.522 368.5,242C 387.049,237.65 400.216,226.817 408,209.5C 418.097,177.108 408.264,152.941 378.5,137C 373.387,134.87 368.054,133.703 362.5,133.5C 360.735,132.539 358.735,132.205 356.5,132.5C 356.5,127.5 356.5,122.5 356.5,117.5C 393.466,120.299 416.633,139.633 426,175.5C 429.381,220.936 408.881,248.436 364.5,258C 324.677,259.169 299.177,240.669 288,202.5C 282.941,170.296 293.941,145.296 321,127.5C 323.512,131.861 326.012,136.194 328.5,140.5 Z"/></g>
<g><path style="opacity:1" fill="#7ca1ac" d="M 154.5,132.5 C 154.667,150.836 154.5,169.17 154,187.5C 153.283,186.956 152.783,186.289 152.5,185.5C 153.167,167.833 153.833,150.167 154.5,132.5 Z"/></g>
<g><path style="opacity:1" fill="#010202" d="M 154.5,132.5 C 184.288,134.794 202.455,150.46 209,179.5C 211.593,203.808 202.76,222.642 182.5,236C 153.878,249.883 129.378,244.717 109,220.5C 91.0875,188.836 96.5875,162.17 125.5,140.5C 134.737,155.299 143.737,170.299 152.5,185.5C 152.783,186.289 153.283,186.956 154,187.5C 154.5,169.17 154.667,150.836 154.5,132.5 Z"/></g>
<g><path style="opacity:1" fill="#1d434e" d="M 356.5,132.5 C 358.735,132.205 360.735,132.539 362.5,133.5C 360.833,133.5 359.167,133.5 357.5,133.5C 357.833,151.512 357.5,169.512 356.5,187.5C 355.893,187.376 355.56,187.043 355.5,186.5C 356.497,168.674 356.83,150.674 356.5,132.5 Z"/></g>
<g><path style="opacity:1" fill="#010202" d="M 362.5,133.5 C 368.054,133.703 373.387,134.87 378.5,137C 408.264,152.941 418.097,177.108 408,209.5C 400.216,226.817 387.049,237.65 368.5,242C 340.043,246.522 319.21,236.022 306,210.5C 295.671,181.218 303.171,157.884 328.5,140.5C 337.5,155.833 346.5,171.167 355.5,186.5C 355.56,187.043 355.893,187.376 356.5,187.5C 357.5,169.512 357.833,151.512 357.5,133.5C 359.167,133.5 360.833,133.5 362.5,133.5 Z"/></g>
<g><path style="opacity:1" fill="#f8a01c" d="M 298.5,274.5 C 289.014,293.323 275.014,307.99 256.5,318.5C 236.843,307.518 222.51,291.852 213.5,271.5C 211.12,258.232 212.953,245.566 219,233.5C 232.71,211.73 251.543,205.563 275.5,215C 296.624,229.527 304.291,249.36 298.5,274.5 Z"/></g>
<g><path style="opacity:0.993" fill="#553826" d="M 75.5,285.5 C 86.8284,285.579 95.6617,290.246 102,299.5C 107.648,312.97 107.981,326.636 103,340.5C 99.054,346.779 94.7206,352.779 90,358.5C 84.2956,369.17 84.1289,379.837 89.5,390.5C 89.3275,395.597 86.6608,397.93 81.5,397.5C 71.3482,396.34 63.1816,391.673 57,383.5C 40.8157,363.762 35.4823,341.429 41,316.5C 44.461,303.054 52.2943,293.22 64.5,287C 68.0863,285.892 71.753,285.392 75.5,285.5 Z"/></g>
<g><path style="opacity:0.993" fill="#553826" d="M 435.5,285.5 C 448.318,285.657 457.818,291.324 464,302.5C 478.654,335.399 473.154,364.566 447.5,390C 440.521,396.412 432.521,398.412 423.5,396C 422.139,394.416 421.472,392.582 421.5,390.5C 426.871,379.837 426.704,369.17 421,358.5C 416.279,352.779 411.946,346.779 408,340.5C 404.711,330.409 403.711,320.076 405,309.5C 409.217,293.971 419.383,285.971 435.5,285.5 Z"/></g>
<g><path style="opacity:1" fill="#fefefe" d="M 211.5,322.5 C 219.94,321.154 227.44,323.154 234,328.5C 234.749,329.635 234.583,330.635 233.5,331.5C 230.461,332.569 227.461,333.735 224.5,335C 223.426,335.739 222.759,336.739 222.5,338C 224.274,340.393 226.607,342.059 229.5,343C 247.566,343.959 265.566,343.626 283.5,342C 286.24,340.95 287.74,339.117 288,336.5C 283.932,334.704 280.099,332.537 276.5,330C 279.262,326.441 282.928,324.108 287.5,323C 292.904,322.228 298.238,322.561 303.5,324C 312.702,327.011 321.702,330.511 330.5,334.5C 331.167,334.167 331.833,333.833 332.5,333.5C 330.016,331.041 328.016,328.374 326.5,325.5C 337.957,324.811 346.457,329.478 352,339.5C 355.016,345.531 358.016,351.531 361,357.5C 361.333,355.833 361.667,354.167 362,352.5C 363.333,351.167 364.667,351.167 366,352.5C 367.044,354.715 367.71,357.048 368,359.5C 368.333,368.167 368.667,376.833 369,385.5C 370.353,384.315 371.52,382.981 372.5,381.5C 373.454,396.356 370.288,410.356 363,423.5C 361.207,426.295 359.04,428.795 356.5,431C 345.613,436.778 334.28,441.444 322.5,445C 310.933,447.315 299.267,447.981 287.5,447C 276.744,445.707 266.077,443.874 255.5,441.5C 244.202,443.526 232.869,445.359 221.5,447C 204.034,449.24 187.367,446.573 171.5,439C 165.954,436.06 160.287,433.394 154.5,431C 147.46,423.424 142.627,414.59 140,404.5C 139.331,397.812 138.497,391.146 137.5,384.5C 137.833,383.5 138.167,382.5 138.5,381.5C 139.48,382.981 140.647,384.315 142,385.5C 142.1,375.108 142.767,364.775 144,354.5C 144.879,351.654 146.546,350.987 149,352.5C 149.333,354.167 149.667,355.833 150,357.5C 152.984,351.531 155.984,345.531 159,339.5C 164.601,329.451 173.101,324.785 184.5,325.5C 183.336,328.187 181.503,330.52 179,332.5C 178.409,333.483 178.743,334.15 180,334.5C 190.348,329.778 200.848,325.778 211.5,322.5 Z"/></g>
<g><path style="opacity:0.991" fill="#553826" d="M 124.5,420.5 C 135.097,422.968 144.097,428.135 151.5,436C 166.237,444.2 181.904,449.867 198.5,453C 217.365,453.33 236.032,451.497 254.5,447.5C 269.871,450.486 285.371,452.486 301,453.5C 307.932,453.484 314.765,452.65 321.5,451C 334.635,447.096 347.302,442.096 359.5,436C 366.667,427.765 375.667,422.599 386.5,420.5C 381.934,441.815 371.601,459.648 355.5,474C 344.357,481.994 332.024,485.827 318.5,485.5C 321.772,478.43 322.772,471.097 321.5,463.5C 318.288,470.631 314.788,477.631 311,484.5C 302.054,497.338 289.721,502.672 274,500.5C 257.182,500.085 240.349,499.919 223.5,500C 214.599,498.8 207.432,494.633 202,487.5C 197.038,479.909 192.871,471.909 189.5,463.5C 188.228,471.097 189.228,478.43 192.5,485.5C 162.382,483.91 141.882,468.91 131,440.5C 128.322,433.966 126.155,427.299 124.5,420.5 Z"/></g>
</svg>
