<?xml version="1.0" encoding="UTF-8"?>
<!DOCTYPE svg PUBLIC "-//W3C//DTD SVG 1.1//EN" "http://www.w3.org/Graphics/SVG/1.1/DTD/svg11.dtd">
<svg xmlns="http://www.w3.org/2000/svg" version="1.1" width="512px" height="512px" style="shape-rendering:geometricPrecision; text-rendering:geometricPrecision; image-rendering:optimizeQuality; fill-rule:evenodd; clip-rule:evenodd" xmlns:xlink="http://www.w3.org/1999/xlink">
<g><path style="opacity:0.977" fill="#946c46" d="M 176.5,147.5 C 170.892,146.125 165.225,144.958 159.5,144C 152.852,132.678 144.685,122.511 135,113.5C 131.329,107.674 127.496,102.007 123.5,96.5C 120.666,95.1159 117.666,94.4492 114.5,94.5C 105.314,96.0885 96.1474,97.7551 87,99.5C 85.1667,99.3333 83.3333,99.1667 81.5,99C 77.9401,96.5967 74.2734,94.4301 70.5,92.5C 68.9707,92.5288 67.804,93.1955 67,94.5C 66.6667,98.1667 66.3333,101.833 66,105.5C 60.9943,96.1605 54.8276,87.6605 47.5,80C 44.1351,77.8426 40.9684,78.0092 38,80.5C 37.3333,84.8333 37.3333,89.1667 38,93.5C 45.9508,119.019 55.2841,144.019 66,168.5C 68.9182,178.205 68.5849,187.872 65,197.5C 63.8333,198.667 62.6667,199.833 61.5,201C 58.9925,201.093 56.8259,201.926 55,203.5C 54.2706,207.997 54.7706,212.33 56.5,216.5C 53.1983,213.026 50.0316,209.359 47,205.5C 45.5886,203.35 44.7553,201.016 44.5,198.5C 46.1667,198.5 47.8333,198.5 49.5,198.5C 47.3306,191.316 44.9973,184.15 42.5,177C 43.1823,173.992 44.8489,173.158 47.5,174.5C 48.5,174.167 49.1667,173.5 49.5,172.5C 43.4631,160.146 37.4631,147.813 31.5,135.5C 33.5116,136.014 35.5116,136.18 37.5,136C 34.7616,128.352 31.5949,120.852 28,113.5C 26.9207,110.937 26.4207,108.271 26.5,105.5C 27.8221,105.33 28.9887,105.663 30,106.5C 30.1667,105.167 30.3333,103.833 30.5,102.5C 28.238,90.8592 26.238,79.1925 24.5,67.5C 26.6807,67.2837 28.3474,68.117 29.5,70C 30.8333,70.6667 32.1667,70.6667 33.5,70C 36.6781,64.6448 40.3447,59.6448 44.5,55C 46.1667,54.3333 47.8333,54.3333 49.5,55C 54.6291,59.9559 59.9624,64.6226 65.5,69C 73.1502,70.0414 80.8169,71.0414 88.5,72C 94.1386,75.9008 99.1386,80.5674 103.5,86C 106.518,86.499 109.518,86.3323 112.5,85.5C 114.299,85.577 115.966,86.077 117.5,87C 124.138,94.3075 130.805,101.641 137.5,109C 142.816,111.994 148.482,113.994 154.5,115C 156.609,116.141 158.442,117.641 160,119.5C 165.259,129.026 170.759,138.359 176.5,147.5 Z"/></g>
<g><path style="opacity:0.997" fill="#afb4f0" d="M 176.5,147.5 C 177.488,148.795 178.488,150.128 179.5,151.5C 181.536,157.253 185.202,161.587 190.5,164.5C 200.07,168.266 205.904,175.266 208,185.5C 211,188.167 214,190.833 217,193.5C 218.971,198.044 220.637,202.711 222,207.5C 223.271,210.433 224.938,213.099 227,215.5C 232.771,220.626 238.605,225.626 244.5,230.5C 230.599,231.08 216.599,232.246 202.5,234C 195.535,234.907 188.869,236.74 182.5,239.5C 182.938,237.874 183.272,236.207 183.5,234.5C 182.365,229.764 181.032,225.097 179.5,220.5C 181.113,215.94 183.28,211.607 186,207.5C 187.731,199.871 186.231,193.038 181.5,187C 173.247,182.206 167.581,184.206 164.5,193C 166.535,201.771 169.368,210.271 173,218.5C 174.379,223.215 173.379,227.215 170,230.5C 169.306,234.554 169.473,238.554 170.5,242.5C 164.894,243.407 159.227,243.74 153.5,243.5C 151.5,243.5 149.5,243.5 147.5,243.5C 144.373,235.407 141.373,227.241 138.5,219C 139.527,215.631 141.027,212.464 143,209.5C 142.249,204.557 141.916,199.557 142,194.5C 150.41,179.885 150.41,165.219 142,150.5C 139.933,147.93 137.433,145.93 134.5,144.5C 133.914,144.709 133.414,145.043 133,145.5C 132.804,155.852 133.304,166.185 134.5,176.5C 135.112,180.807 133.945,184.474 131,187.5C 130.833,189.167 130.667,190.833 130.5,192.5C 131.444,199.152 131.61,205.819 131,212.5C 128.959,213.423 126.792,213.756 124.5,213.5C 126.82,224.144 130.82,234.144 136.5,243.5C 131.5,243.5 126.5,243.5 121.5,243.5C 115.589,234.845 110.589,225.679 106.5,216C 107.601,205.64 107.268,195.307 105.5,185C 106.03,179.554 107.03,174.221 108.5,169C 107.037,161.614 105.371,154.281 103.5,147C 103.305,144.648 103.972,142.648 105.5,141C 108.482,140.502 111.482,140.335 114.5,140.5C 113.865,137.507 113.699,134.507 114,131.5C 116.514,128.322 119.014,125.156 121.5,122C 119.634,118.235 116.634,116.902 112.5,118C 109.508,121.992 106.174,125.658 102.5,129C 96.0045,127.832 93.0045,130.498 93.5,137C 94.9538,145.123 95.4538,153.29 95,161.5C 94.4818,164.023 93.1485,166.023 91,167.5C 90.8333,168.833 90.6667,170.167 90.5,171.5C 92.6345,179.041 94.3012,186.708 95.5,194.5C 96.0825,198.082 94.5825,200.082 91,200.5C 90.3333,202.167 90.3333,203.833 91,205.5C 94.6667,212.167 98.3333,218.833 102,225.5C 101.662,228.625 100.995,231.625 100,234.5C 103.381,238.375 106.547,242.375 109.5,246.5C 103.733,249.218 98.0668,252.218 92.5,255.5C 91.8165,255.137 91.1499,254.804 90.5,254.5C 75.2668,245.27 63.9334,232.603 56.5,216.5C 54.7706,212.33 54.2706,207.997 55,203.5C 56.8259,201.926 58.9925,201.093 61.5,201C 62.6667,199.833 63.8333,198.667 65,197.5C 68.5849,187.872 68.9182,178.205 66,168.5C 55.2841,144.019 45.9508,119.019 38,93.5C 37.3333,89.1667 37.3333,84.8333 38,80.5C 40.9684,78.0092 44.1351,77.8426 47.5,80C 54.8276,87.6605 60.9943,96.1605 66,105.5C 66.3333,101.833 66.6667,98.1667 67,94.5C 67.804,93.1955 68.9707,92.5288 70.5,92.5C 74.2734,94.4301 77.9401,96.5967 81.5,99C 83.3333,99.1667 85.1667,99.3333 87,99.5C 96.1474,97.7551 105.314,96.0885 114.5,94.5C 117.666,94.4492 120.666,95.1159 123.5,96.5C 127.496,102.007 131.329,107.674 135,113.5C 144.685,122.511 152.852,132.678 159.5,144C 165.225,144.958 170.892,146.125 176.5,147.5 Z"/></g>
<g><path style="opacity:1" fill="#8a8dbe" d="M 121.5,243.5 C 117.615,244.49 113.615,245.49 109.5,246.5C 106.547,242.375 103.381,238.375 100,234.5C 100.995,231.625 101.662,228.625 102,225.5C 98.3333,218.833 94.6667,212.167 91,205.5C 90.3333,203.833 90.3333,202.167 91,200.5C 94.5825,200.082 96.0825,198.082 95.5,194.5C 94.3012,186.708 92.6345,179.041 90.5,171.5C 90.6667,170.167 90.8333,168.833 91,167.5C 93.1485,166.023 94.4818,164.023 95,161.5C 95.4538,153.29 94.9538,145.123 93.5,137C 93.0045,130.498 96.0045,127.832 102.5,129C 106.174,125.658 109.508,121.992 112.5,118C 116.634,116.902 119.634,118.235 121.5,122C 119.014,125.156 116.514,128.322 114,131.5C 113.699,134.507 113.865,137.507 114.5,140.5C 111.482,140.335 108.482,140.502 105.5,141C 103.972,142.648 103.305,144.648 103.5,147C 105.371,154.281 107.037,161.614 108.5,169C 107.03,174.221 106.03,179.554 105.5,185C 107.268,195.307 107.601,205.64 106.5,216C 110.589,225.679 115.589,234.845 121.5,243.5 Z"/></g>
<g><path style="opacity:1" fill="#8a8dbe" d="M 147.5,243.5 C 143.833,243.5 140.167,243.5 136.5,243.5C 130.82,234.144 126.82,224.144 124.5,213.5C 126.792,213.756 128.959,213.423 131,212.5C 131.61,205.819 131.444,199.152 130.5,192.5C 130.667,190.833 130.833,189.167 131,187.5C 133.945,184.474 135.112,180.807 134.5,176.5C 133.304,166.185 132.804,155.852 133,145.5C 133.414,145.043 133.914,144.709 134.5,144.5C 137.433,145.93 139.933,147.93 142,150.5C 150.41,165.219 150.41,179.885 142,194.5C 141.916,199.557 142.249,204.557 143,209.5C 141.027,212.464 139.527,215.631 138.5,219C 141.373,227.241 144.373,235.407 147.5,243.5 Z"/></g>
<g><path style="opacity:0.822" fill="#956f4d" d="M 179.5,151.5 C 184.264,154.928 187.93,159.262 190.5,164.5C 185.202,161.587 181.536,157.253 179.5,151.5 Z"/></g>
<g><path style="opacity:1" fill="#8a8dbe" d="M 182.5,239.5 C 178.652,241.004 174.652,242.004 170.5,242.5C 169.473,238.554 169.306,234.554 170,230.5C 173.379,227.215 174.379,223.215 173,218.5C 169.368,210.271 166.535,201.771 164.5,193C 167.581,184.206 173.247,182.206 181.5,187C 186.231,193.038 187.731,199.871 186,207.5C 183.28,211.607 181.113,215.94 179.5,220.5C 181.032,225.097 182.365,229.764 183.5,234.5C 183.272,236.207 182.938,237.874 182.5,239.5 Z"/></g>
<g><path style="opacity:0.988" fill="#d8dcfc" d="M 244.5,230.5 C 262.963,229.931 280.963,232.431 298.5,238C 314.957,239.91 331.291,242.576 347.5,246C 363.399,250.411 379.399,254.411 395.5,258C 402.452,260.143 408.786,263.309 414.5,267.5C 415.615,269.307 416.281,271.307 416.5,273.5C 413.861,280.97 413.028,288.636 414,296.5C 414.561,298.725 415.561,300.725 417,302.5C 421.36,306.86 425.694,311.194 430,315.5C 432.077,319.704 431.744,323.704 429,327.5C 426.228,325.239 423.062,323.739 419.5,323C 414.125,322.162 408.792,321.162 403.5,320C 400.034,316.96 398.7,313.126 399.5,308.5C 402.862,308.93 405.695,307.93 408,305.5C 408.667,304.167 408.667,302.833 408,301.5C 405.017,300.083 401.85,299.25 398.5,299C 397.167,297.667 395.833,296.333 394.5,295C 389.683,293.09 385.016,290.924 380.5,288.5C 384.871,287.491 389.204,286.324 393.5,285C 396.362,283.214 397.028,280.881 395.5,278C 392.09,276.972 388.59,276.472 385,276.5C 379.826,277.044 374.659,277.211 369.5,277C 366.866,273.682 363.533,271.349 359.5,270C 368.029,268.528 376.363,266.362 384.5,263.5C 383.271,262.719 381.938,262.219 380.5,262C 365.193,260.372 349.86,259.038 334.5,258C 331.226,256.798 327.893,255.798 324.5,255C 308.645,254.573 292.811,255.073 277,256.5C 265.057,255.445 253.224,253.612 241.5,251C 230.833,250.333 220.167,250.333 209.5,251C 196.325,253.42 184.992,259.253 175.5,268.5C 169.782,266.874 164.615,264.207 160,260.5C 158.927,256.916 158.26,253.25 158,249.5C 156.668,247.34 155.168,245.34 153.5,243.5C 159.227,243.74 164.894,243.407 170.5,242.5C 174.652,242.004 178.652,241.004 182.5,239.5C 188.869,236.74 195.535,234.907 202.5,234C 216.599,232.246 230.599,231.08 244.5,230.5 Z"/></g>
<g><path style="opacity:1" fill="#c2986c" d="M 121.5,243.5 C 126.5,243.5 131.5,243.5 136.5,243.5C 140.167,243.5 143.833,243.5 147.5,243.5C 149.5,243.5 151.5,243.5 153.5,243.5C 155.168,245.34 156.668,247.34 158,249.5C 158.26,253.25 158.927,256.916 160,260.5C 164.615,264.207 169.782,266.874 175.5,268.5C 174.223,270.95 172.723,273.283 171,275.5C 170.427,281.539 170.761,287.539 172,293.5C 173.608,298.822 175.108,304.155 176.5,309.5C 172.873,310.28 169.54,311.78 166.5,314C 158.844,319.83 150.844,325.163 142.5,330C 137.467,330.935 132.467,331.935 127.5,333C 122.268,338.143 117.268,343.476 112.5,349C 110.866,349.494 109.199,349.66 107.5,349.5C 107.5,349.167 107.5,348.833 107.5,348.5C 120.85,328.695 122.017,308.028 111,286.5C 104.607,277.904 96.1068,275.071 85.5,278C 82.2564,278.97 79.0897,280.137 76,281.5C 74.2853,278.284 71.7853,275.951 68.5,274.5C 70.5566,270.933 73.2232,267.766 76.5,265C 81.4818,261.702 86.1485,258.202 90.5,254.5C 91.1499,254.804 91.8165,255.137 92.5,255.5C 98.0668,252.218 103.733,249.218 109.5,246.5C 113.615,245.49 117.615,244.49 121.5,243.5 Z"/></g>
<g><path style="opacity:0.996" fill="#afb4f0" d="M 414.5,267.5 C 433.37,270.708 452.037,274.874 470.5,280C 471.815,281.395 471.481,282.395 469.5,283C 460.155,283.501 450.821,284.167 441.5,285C 454.622,286.947 467.289,290.447 479.5,295.5C 480.792,298.411 479.792,300.244 476.5,301C 468.274,302.985 459.941,304.318 451.5,305C 459.559,307.131 467.559,309.464 475.5,312C 479.363,313.181 482.863,315.014 486,317.5C 486.865,319.888 486.032,321.388 483.5,322C 474.55,323.18 465.55,323.847 456.5,324C 463.444,327.053 469.611,331.219 475,336.5C 475.617,337.449 475.451,338.282 474.5,339C 461.2,340.117 448.2,338.617 435.5,334.5C 436.412,342.752 438.912,350.752 443,358.5C 447.131,362.639 451.798,365.972 457,368.5C 458.073,372.1 457.24,375.1 454.5,377.5C 448.692,379.798 443.859,383.465 440,388.5C 440.293,392.003 442.126,394.669 445.5,396.5C 446.428,397.768 446.595,399.101 446,400.5C 437.832,405.25 429.832,410.25 422,415.5C 420.971,419.635 420.471,423.802 420.5,428C 416.54,429.091 412.54,430.091 408.5,431C 407.667,431.833 406.833,432.667 406,433.5C 405.667,438.174 405.833,442.84 406.5,447.5C 403.813,447.664 401.146,447.497 398.5,447C 392.051,444.609 385.718,441.942 379.5,439C 343.116,419.475 306.449,400.475 269.5,382C 263.822,378.991 257.822,377.658 251.5,378C 250.614,379.615 249.614,381.115 248.5,382.5C 246.473,382.662 244.473,382.495 242.5,382C 231.986,373.834 220.319,367.834 207.5,364C 199.308,356.43 192.975,347.597 188.5,337.5C 183.964,328.425 179.964,319.091 176.5,309.5C 175.108,304.155 173.608,298.822 172,293.5C 170.761,287.539 170.427,281.539 171,275.5C 172.723,273.283 174.223,270.95 175.5,268.5C 184.992,259.253 196.325,253.42 209.5,251C 220.167,250.333 230.833,250.333 241.5,251C 253.224,253.612 265.057,255.445 277,256.5C 292.811,255.073 308.645,254.573 324.5,255C 327.893,255.798 331.226,256.798 334.5,258C 349.86,259.038 365.193,260.372 380.5,262C 381.938,262.219 383.271,262.719 384.5,263.5C 376.363,266.362 368.029,268.528 359.5,270C 363.533,271.349 366.866,273.682 369.5,277C 374.659,277.211 379.826,277.044 385,276.5C 388.59,276.472 392.09,276.972 395.5,278C 397.028,280.881 396.362,283.214 393.5,285C 389.204,286.324 384.871,287.491 380.5,288.5C 385.016,290.924 389.683,293.09 394.5,295C 395.833,296.333 397.167,297.667 398.5,299C 401.85,299.25 405.017,300.083 408,301.5C 408.667,302.833 408.667,304.167 408,305.5C 405.695,307.93 402.862,308.93 399.5,308.5C 398.7,313.126 400.034,316.96 403.5,320C 408.792,321.162 414.125,322.162 419.5,323C 423.062,323.739 426.228,325.239 429,327.5C 431.744,323.704 432.077,319.704 430,315.5C 425.694,311.194 421.36,306.86 417,302.5C 415.561,300.725 414.561,298.725 414,296.5C 413.028,288.636 413.861,280.97 416.5,273.5C 416.281,271.307 415.615,269.307 414.5,267.5 Z"/></g>
<g><path style="opacity:1" fill="#d8dbfa" d="M 68.5,274.5 C 71.7853,275.951 74.2853,278.284 76,281.5C 79.0897,280.137 82.2564,278.97 85.5,278C 96.1068,275.071 104.607,277.904 111,286.5C 122.017,308.028 120.85,328.695 107.5,348.5C 100.757,348.175 94.0905,347.342 87.5,346C 84.2433,341.056 79.7433,338.223 74,337.5C 72.6244,337.684 71.7911,338.351 71.5,339.5C 65.5735,329.042 62.2402,317.709 61.5,305.5C 70.0238,304.453 72.1904,300.119 68,292.5C 65.2728,291.241 63.4394,289.241 62.5,286.5C 62.9249,281.65 64.9249,277.65 68.5,274.5 Z"/></g>
<g><path style="opacity:1" fill="#8b8ebe" d="M 317.5,281.5 C 323.182,282.343 327.349,285.343 330,290.5C 333.274,300.106 336.774,309.606 340.5,319C 340.095,319.945 339.428,320.612 338.5,321C 334.973,321.145 331.64,321.978 328.5,323.5C 327.534,325.396 327.201,327.396 327.5,329.5C 321.187,328.672 314.853,328.005 308.5,327.5C 308.5,328.833 308.5,330.167 308.5,331.5C 305.984,331.245 303.65,330.411 301.5,329C 297.833,326 294.167,323 290.5,320C 298.755,320.602 307.089,320.602 315.5,320C 316.308,319.692 316.975,319.192 317.5,318.5C 319.779,313.06 321.279,307.394 322,301.5C 323.146,299.356 324.646,297.523 326.5,296C 323.109,291.379 320.109,286.545 317.5,281.5 Z"/></g>
<g><path style="opacity:1" fill="#966e47" d="M 139.5,281.5 C 140.5,281.5 141.5,281.5 142.5,281.5C 143.041,284.652 142.041,287.152 139.5,289C 135.26,290.971 130.927,292.305 126.5,293C 130.433,288.558 134.767,284.724 139.5,281.5 Z"/></g>
<g><path style="opacity:1" fill="#4d5358" d="M 61.5,290.5 C 65.0383,291.872 67.3717,294.372 68.5,298C 67.7839,301.882 65.4505,303.715 61.5,303.5C 60.1667,299.167 60.1667,294.833 61.5,290.5 Z"/></g>
<g><path style="opacity:1" fill="#966e46" d="M 140.5,294.5 C 141.833,294.5 143.167,294.5 144.5,294.5C 144.919,297.325 143.919,299.491 141.5,301C 137.825,302.892 133.991,304.392 130,305.5C 128.743,305.15 128.409,304.483 129,303.5C 132.733,300.255 136.566,297.255 140.5,294.5 Z"/></g>
<g><path style="opacity:1" fill="#bf9a77" d="M 62.5,286.5 C 63.4394,289.241 65.2728,291.241 68,292.5C 72.1904,300.119 70.0238,304.453 61.5,305.5C 61.5,304.833 61.5,304.167 61.5,303.5C 65.4505,303.715 67.7839,301.882 68.5,298C 67.3717,294.372 65.0383,291.872 61.5,290.5C 61.2322,288.901 61.5655,287.568 62.5,286.5 Z"/></g>
<g><path style="opacity:1" fill="#bf9770" d="M 70.5,307.5 C 79.4841,311.138 82.1508,317.471 78.5,326.5C 76.6351,327.666 74.9684,327.333 73.5,325.5C 72.0295,326.381 71.1962,327.714 71,329.5C 67.9302,322.28 67.7636,314.947 70.5,307.5 Z"/></g>
<g><path style="opacity:1" fill="#966e48" d="M 176.5,309.5 C 179.964,319.091 183.964,328.425 188.5,337.5C 175.618,337.194 162.951,338.694 150.5,342C 139.126,347.023 127.793,352.023 116.5,357C 110.833,357.667 105.167,357.667 99.5,357C 97.9419,356.79 96.6085,356.29 95.5,355.5C 97.9686,354.683 100.635,354.183 103.5,354C 105.751,353.252 107.084,351.752 107.5,349.5C 109.199,349.66 110.866,349.494 112.5,349C 117.268,343.476 122.268,338.143 127.5,333C 132.467,331.935 137.467,330.935 142.5,330C 150.844,325.163 158.844,319.83 166.5,314C 169.54,311.78 172.873,310.28 176.5,309.5 Z"/></g>
<g><path style="opacity:1" fill="#be9974" d="M 86.5,297.5 C 92.1471,298.296 96.3138,301.296 99,306.5C 97.8918,312.796 94.0584,315.296 87.5,314C 85.04,312.542 82.8734,310.709 81,308.5C 80.3333,307.167 80.3333,305.833 81,304.5C 82.6665,302.004 84.4998,299.671 86.5,297.5 Z"/></g>
<g><path style="opacity:1" fill="#424b51" d="M 87.5,299.5 C 91.6535,300.971 94.9868,303.637 97.5,307.5C 93.1528,313.804 88.3195,314.137 83,308.5C 82.887,304.726 84.387,301.726 87.5,299.5 Z"/></g>
<g><path style="opacity:1" fill="#8a8ebe" d="M 362.5,312.5 C 370.34,315.459 373.173,321.126 371,329.5C 369.619,335.119 368.452,340.786 367.5,346.5C 367.865,350.929 369.198,354.929 371.5,358.5C 366.162,357.998 360.828,357.831 355.5,358C 354.736,360.069 354.236,362.236 354,364.5C 353.25,365.126 352.416,365.626 351.5,366C 343.277,366.017 335.11,365.184 327,363.5C 324.313,363.198 322.313,364.198 321,366.5C 313.933,362.048 306.766,357.714 299.5,353.5C 298.38,354.833 297.047,355.333 295.5,355C 290.167,349.667 284.833,344.333 279.5,339C 277.621,338.937 275.787,339.437 274,340.5C 264.441,336.286 255.941,330.453 248.5,323C 256.808,323.111 265.141,323.778 273.5,325C 281.167,330 288.833,335 296.5,340C 304.266,341.477 311.599,344.144 318.5,348C 320.333,348.167 322.167,348.333 324,348.5C 330.19,347.577 336.357,346.577 342.5,345.5C 346.513,346.006 350.513,346.172 354.5,346C 355,345.5 355.5,345 356,344.5C 356.5,336.841 356.666,329.174 356.5,321.5C 358.806,321.993 361.139,322.326 363.5,322.5C 363.167,319.167 362.833,315.833 362.5,312.5 Z"/></g>
<g><path style="opacity:1" fill="#997149" d="M 144.5,312.5 C 148.161,312.35 149.161,313.85 147.5,317C 142.412,319.478 137.079,320.478 131.5,320C 135.928,317.459 140.262,314.959 144.5,312.5 Z"/></g>
<g><path style="opacity:1" fill="#8a8dbe" d="M 216.5,334.5 C 221.26,336.7 226.26,337.033 231.5,335.5C 234.259,335.542 236.925,336.042 239.5,337C 245.183,342.347 251.183,347.347 257.5,352C 261.5,353 265.5,354 269.5,355C 277.672,359.92 286.005,364.587 294.5,369C 301.792,368.857 308.792,370.19 315.5,373C 325.01,378.255 334.676,383.255 344.5,388C 355.403,388.878 366.236,390.378 377,392.5C 380.333,392.5 383,391.167 385,388.5C 387.333,382.5 389.667,376.5 392,370.5C 392.833,369.667 393.667,368.833 394.5,368C 397.167,367.667 399.833,367.333 402.5,367C 403,366.5 403.5,366 404,365.5C 402.498,355.481 400.665,345.481 398.5,335.5C 406.195,336.686 411.362,341.019 414,348.5C 414.333,357.167 414.667,365.833 415,374.5C 416.029,377.39 417.195,380.224 418.5,383C 418.095,383.945 417.428,384.612 416.5,385C 411.447,385.217 406.447,385.717 401.5,386.5C 400.808,387.025 400.308,387.692 400,388.5C 399.667,393.167 399.333,397.833 399,402.5C 396.503,404.478 393.669,404.978 390.5,404C 384.104,402.318 377.771,400.485 371.5,398.5C 370.228,398.57 369.062,398.903 368,399.5C 367.818,402.226 367.318,404.893 366.5,407.5C 365.061,408.063 363.561,408.397 362,408.5C 351.928,405.716 342.094,402.216 332.5,398C 330.866,397.506 329.199,397.34 327.5,397.5C 327.728,399.355 327.061,400.188 325.5,400C 315.676,392.588 305.676,385.421 295.5,378.5C 293.902,379.485 292.235,379.651 290.5,379C 283.833,374.333 277.167,369.667 270.5,365C 267.222,363.191 263.889,361.691 260.5,360.5C 260.435,363.998 259.101,364.498 256.5,362C 249.011,356.089 241.345,350.423 233.5,345C 230.972,345.939 228.306,346.605 225.5,347C 221.869,343.215 218.869,339.049 216.5,334.5 Z"/></g>
<g><path style="opacity:1" fill="#b1b4eb" d="M 107.5,348.5 C 107.5,348.833 107.5,349.167 107.5,349.5C 107.084,351.752 105.751,353.252 103.5,354C 100.635,354.183 97.9686,354.683 95.5,355.5C 85.0806,353.739 77.0806,348.406 71.5,339.5C 71.7911,338.351 72.6244,337.684 74,337.5C 79.7433,338.223 84.2433,341.056 87.5,346C 94.0905,347.342 100.757,348.175 107.5,348.5 Z"/></g>
<g><path style="opacity:0.976" fill="#946c46" d="M 454.5,377.5 C 456.214,381.082 458.547,384.248 461.5,387C 465.615,389.448 469.448,392.281 473,395.5C 473.667,396.5 473.667,397.5 473,398.5C 465.884,402.874 458.551,406.874 451,410.5C 451.017,412.568 452.017,414.234 454,415.5C 454.959,419.421 453.792,422.588 450.5,425C 443.421,429.117 437.254,434.283 432,440.5C 431.306,444.002 431.806,447.336 433.5,450.5C 433.392,451.442 433.059,452.275 432.5,453C 430.419,453.869 428.253,454.369 426,454.5C 417.881,453.209 409.714,452.542 401.5,452.5C 401.5,453.833 401.5,455.167 401.5,456.5C 388.975,452.241 376.642,447.407 364.5,442C 363.167,441.333 361.833,441.333 360.5,442C 362.421,443.241 362.754,444.741 361.5,446.5C 348.33,438.416 335.33,430.083 322.5,421.5C 320.902,422.485 319.235,422.651 317.5,422C 307.138,414.152 296.138,407.319 284.5,401.5C 283.269,402.651 283.269,403.817 284.5,405C 283.892,405.87 283.059,406.37 282,406.5C 269.814,399.833 258.647,391.833 248.5,382.5C 249.614,381.115 250.614,379.615 251.5,378C 257.822,377.658 263.822,378.991 269.5,382C 306.449,400.475 343.116,419.475 379.5,439C 385.718,441.942 392.051,444.609 398.5,447C 401.146,447.497 403.813,447.664 406.5,447.5C 405.833,442.84 405.667,438.174 406,433.5C 406.833,432.667 407.667,431.833 408.5,431C 412.54,430.091 416.54,429.091 420.5,428C 420.471,423.802 420.971,419.635 422,415.5C 429.832,410.25 437.832,405.25 446,400.5C 446.595,399.101 446.428,397.768 445.5,396.5C 442.126,394.669 440.293,392.003 440,388.5C 443.859,383.465 448.692,379.798 454.5,377.5 Z"/></g>
</svg>
